<svg xmlns="http://www.w3.org/2000/svg" width="24" height="24.012" viewBox="0 0 24 24.012"><path d="M288.118,127.307h-2.163v-2.172h2.191a10.038,10.038,0,0,1,2.836-5.87,9.881,9.881,0,0,1,5.848-2.845v-2.207h2.218v2.154c4.909.919,7.8,3.785,8.753,8.751h2.153v2.17h-2.147c-.918,4.931-3.8,7.832-8.751,8.766v2.171H296.9v-2.163C291.974,135.15,289.058,132.278,288.118,127.307Zm9.837,6.571a7.665,7.665,0,1,0-7.659-7.654A7.685,7.685,0,0,0,297.955,133.878Zm-.014-12.044a4.379,4.379,0,1,0,4.4,4.377A4.386,4.386,0,0,0,297.941,121.833Z" transform="translate(-285.955 -114.213)" fill="#ce9c6b"/></svg>