<svg xmlns="http://www.w3.org/2000/svg" width="21.792" height="21.804" viewBox="0 0 21.792 21.804"><path d="M563.675,379.453a18.418,18.418,0,0,0,8,8.022c.776-.777,1.581-1.533,2.327-2.343a1.771,1.771,0,0,1,1.955-.539,27.679,27.679,0,0,0,3.715.592c.995.1,1.431.459,1.438,1.443.01,1.286.012,2.572,0,3.857-.009.932-.47,1.366-1.414,1.374a20.624,20.624,0,0,1-20.063-17.032,31.048,31.048,0,0,1-.3-3.383,1.191,1.191,0,0,1,1.327-1.375q2-.025,4.009,0c.845.011,1.22.471,1.323,1.323.162,1.345.352,2.691.634,4.014a1.515,1.515,0,0,1-.4,1.575C565.365,377.8,564.52,378.631,563.675,379.453Z" transform="translate(-559.323 -370.057)" fill="#B06D15"/></svg>