<svg xmlns="http://www.w3.org/2000/svg" viewBox="0 0 79.71 68.77"><defs><style>.cls-1{fill:#1d1d1b;}.cls-2{fill:#fff;}</style></defs><g id="Camada_2" data-name="Camada 2"><g id="Camada_1-2" data-name="Camada 1"><path class="cls-1" d="M79.71,54.64,30.37,67.93A24.1,24.1,0,0,1,0,44.66V14.13L49.33.84A24.12,24.12,0,0,1,79.71,24.12Z"/><path class="cls-2" d="M10.4,50.41l.89-.23c.37-.09.62-.07.76.06a1.27,1.27,0,0,1,.21.81v.11a2.25,2.25,0,0,1-.09.7.84.84,0,0,1-.29.44c.3,0,.46.4.46,1.07v.1a2.31,2.31,0,0,1-.23,1.12,1.11,1.11,0,0,1-.75.51l-1,.25Zm1.28.79h0c0-.33-.06-.51-.17-.54a.54.54,0,0,0-.25,0l-.28.08v1.58l.33-.08a.67.67,0,0,0,.24-.11.54.54,0,0,0,.1-.25,3.39,3.39,0,0,0,0-.54Zm.07,2.23a1.64,1.64,0,0,0-.08-.65c-.05-.11-.15-.15-.3-.11l-.39.1v2l.35-.09a.45.45,0,0,0,.34-.28,2.53,2.53,0,0,0,.08-.76Z"/><path class="cls-2" d="M14.7,49.23l.7-.18.82,4.74-.55.14L15.53,53l-.89.23-.13,1-.56.14Zm0,3.53.76-.19-.39-2.52h0Z"/><path class="cls-2" d="M18,48.32l1-.26a.79.79,0,0,1,.64,0,.75.75,0,0,1,.23.56c0,.12,0,.3,0,.56a2.18,2.18,0,0,1-.1.66.83.83,0,0,1-.35.43.3.3,0,0,1,.28.12,1.12,1.12,0,0,1,.13.49,9.14,9.14,0,0,1,0,1.05,3.54,3.54,0,0,0,.05.82l-.58.14a12,12,0,0,1-.05-1.65c0-.35,0-.55-.1-.59a.48.48,0,0,0-.32,0l-.34.07v2.39l-.58.15Zm1.34.87c0-.38,0-.59-.1-.63a.37.37,0,0,0-.3,0l-.36.1V50.3l.37-.09a.54.54,0,0,0,.25-.13.52.52,0,0,0,.11-.27,4.1,4.1,0,0,0,0-.58Z"/><path class="cls-2" d="M21.83,47.31l.89-.23c.37-.09.63-.07.76.06a1.27,1.27,0,0,1,.21.81v.11a2.25,2.25,0,0,1-.09.7.84.84,0,0,1-.29.44c.31,0,.46.4.46,1.07v.11a2.34,2.34,0,0,1-.23,1.12,1.11,1.11,0,0,1-.75.51l-1,.24Zm1.28.79h0c0-.33-.06-.51-.17-.54a.54.54,0,0,0-.25,0l-.28.08v1.59l.33-.09a.36.36,0,0,0,.34-.36,3.39,3.39,0,0,0,0-.54Zm.07,2.24a1.61,1.61,0,0,0-.08-.65c-.05-.12-.15-.15-.3-.12l-.39.1v2l.35-.09a.47.47,0,0,0,.34-.28,2.57,2.57,0,0,0,.08-.76Z"/><path class="cls-2" d="M25.6,46.28l1.48-.38v.49l-.89.22v1.7l.84-.22v.49l-.84.21V50.6l.9-.23v.48l-1.49.38Z"/><path class="cls-2" d="M29,45.35l1-.26a.77.77,0,0,1,.63,0,.75.75,0,0,1,.24.56c0,.12,0,.31,0,.56a2,2,0,0,1-.1.67.7.7,0,0,1-.35.42.29.29,0,0,1,.28.12,1.31,1.31,0,0,1,.14.49c0,.24,0,.59,0,1.06a3.68,3.68,0,0,0,.05.82l-.58.14a13.42,13.42,0,0,1,0-1.66c0-.35,0-.55-.11-.59a.4.4,0,0,0-.31,0l-.35.07v2.39L29,50.3Zm1.35.87c0-.38,0-.59-.11-.63a.38.38,0,0,0-.29,0l-.37.1v1.67l.37-.1a.53.53,0,0,0,.25-.12.56.56,0,0,0,.11-.28,2.83,2.83,0,0,0,0-.58Z"/><path class="cls-2" d="M32.82,44.42l.58-.15v5l-.58.14Z"/><path class="cls-2" d="M36.92,43.31l.52-.13v5l-.43.11L35.9,45.12l0,1.24v2.15l-.54.14v-5l.44-.11L37,46.67l-.06-1.42Z"/><path class="cls-2" d="M39.34,44a1.76,1.76,0,0,1,.52-1.49,1.22,1.22,0,0,1,.44-.22.8.8,0,0,1,.65,0,.6.6,0,0,1,.26.44,4,4,0,0,1,.06.76v.38l-.56.14v-.64a1.14,1.14,0,0,0-.08-.53c-.05-.09-.15-.12-.3-.08a.45.45,0,0,0-.32.28,2.32,2.32,0,0,0-.09.76v2.08a2.79,2.79,0,0,0,.08.81.24.24,0,0,0,.32.15.46.46,0,0,0,.33-.32,2.93,2.93,0,0,0,.09-.86v-.64l-.4.1v-.45l.93-.24v2.6l-.3.08-.08-.36a.87.87,0,0,1-.63.59.6.6,0,0,1-.7-.19,2,2,0,0,1-.22-1.1Z"/><path class="cls-2" d="M22.82,38.23c-.23.39-.46.84-.73,1.39-.6,1.21-1.75,2.7-2.89,3l-3,.74L26.78,13.86,10.31,18.48a2.13,2.13,0,1,0,2.42,3.12c.22-.39.46-.84.72-1.38.6-1.23,1.75-2.74,2.9-3.06l3-.86L8.81,45.55l16.36-4.06a2.11,2.11,0,0,0,1.61-2.06v-.12A2.13,2.13,0,0,0,22.82,38.23Zm-9.64,4.69h0a0,0,0,0,1,0-.07L17.6,29.69l4.54-12.23a.05.05,0,0,1,.07,0s.05,0,0,.08L18.2,29.86l-5,13A.07.07,0,0,1,13.18,42.92Z"/><path class="cls-2" d="M48.69,18.06a5.51,5.51,0,0,0-3.56,3.18V18.61A16.84,16.84,0,0,1,38.61,22v.28c.68-.18,1.32-.29,1.32.23V34.2c0,.41-.39.65-1.32.88v.27l7.85-2v-.27c-.93.23-1.33.19-1.33-.23V22.32c.61-2.11,1.73-3,2.55-3.22.25-.07.9-.14.9.24s-.72,1.21-.72,2.18c0,1.4,1.15,1.76,2.22,1.47a3,3,0,0,0,2.19-2.85C52.27,18.07,50.66,17.52,48.69,18.06Zm-5.77,10-.24,5.12a.06.06,0,0,1-.12,0L42.32,28a1.22,1.22,0,0,1,0-.27l.24-5.38a.06.06,0,0,1,.12,0l.24,5.3Z"/><path class="cls-2" d="M33.57,34.87c-3,.72-4.26-1.47-4.26-5l8.52-2.25c-.14-4.24-2.4-6.37-6.62-5.23a10,10,0,0,0-6.88,9.23c0,4.29,3,6.74,7.35,5.66,1.82-.45,3.9-1.62,5.43-5.06A6.34,6.34,0,0,1,33.57,34.87Zm-2-12.28c1.64-.44,1.89,1.94,1.89,5.74l-4.19,1.09C29.31,23.52,31,22.76,31.61,22.59Zm-.87,13.66h0A5,5,0,0,1,27,33.92c-1.41-2.63.16-6.33.67-7.41l0-.05a.08.08,0,0,1,.09,0,.07.07,0,0,1,0,.08s-1.73,4.59-.28,7.31a4.65,4.65,0,0,0,3.19,2.31s.06,0,.05.07A.06.06,0,0,1,30.74,36.25Z"/><path class="cls-2" d="M59.29,14.8c-3.38,1-6.41,3.79-6.41,9.29,0,5.2,3.2,6.68,6.68,5.81s6.65-4.22,6.65-9.28c0-4.47-1.92-6.11-4.38-6.19A8.6,8.6,0,0,0,59.29,14.8ZM56.58,29h0a.06.06,0,0,1-.06,0,15.71,15.71,0,0,1-1.19-5.71,14.25,14.25,0,0,1,.93-4.88.56.56,0,0,1,0-.08h0a.06.06,0,0,1,.07,0s.06,0,0,.07a31,31,0,0,0-.46,4.84,15.4,15.4,0,0,0,.68,5.76A.07.07,0,0,1,56.58,29Zm3,.66c-.91.23-1.68.53-1.68-6.83s.77-7.5,1.68-7.75,1.62-.55,1.62,6.89S60.44,29.41,59.56,29.62Zm3.34-2.68s0,.07,0,.08a.05.05,0,0,1-.06,0h0a.06.06,0,0,1,0-.08,29.85,29.85,0,0,0,.45-4.84,15.11,15.11,0,0,0-.67-5.74h0a.06.06,0,1,1,.11-.05h0a15.75,15.75,0,0,1,1.19,5.71A14.55,14.55,0,0,1,62.9,26.94Z"/><path class="cls-2" d="M57.91,46.5c-.56,2-1.4,2.76-2.45,3.08-1.61.49-3.71-.08-5.49.46a6,6,0,0,0-3.85,3.6c.31-1.94,1.36-4,4.83-5.79,6.09-3.15,6.89-7.4,6.89-8.92,0-4.76-3-5.46-6.23-4.64h0c-3.47.88-5.78,4.1-5.78,6.3,0,1.47.88,2.06,2.31,1.67a3,3,0,0,0,2.35-2.69c0-1.41-2-1.23-2-2.41,0-1,1.68-2.24,3.08-2.6h0c2-.5,3.4.35,3.4,2.09s-1.47,4.53-5.25,7.82c-3.33,2.9-4.48,5.69-4.48,8.17a8.07,8.07,0,0,0,.77,3.47s.42-2.85,2.17-3.39c2-.6,2.87,1.84,5.81.91C58.4,52.22,57.91,46.5,57.91,46.5ZM47.7,48.43a12.5,12.5,0,0,1,2.81-2.77,37.8,37.8,0,0,0,2.91-2.46A7.68,7.68,0,0,0,56,37.57a.08.08,0,0,1,0-.07s.07,0,.07,0v0a6.65,6.65,0,0,1-2.33,6.08,22.39,22.39,0,0,1-2.41,1.87l-.7.49c-.22.17-.44.32-.65.47a9,9,0,0,0-2.27,2h0a.06.06,0,0,1,0,0h0A.06.06,0,0,1,47.7,48.43Z"/><path class="cls-2" d="M72.41,30.44a12.89,12.89,0,0,0-.11-1.67,7.38,7.38,0,0,1-3.39,2.38c-1.91.5-3.42-.6-6.44.18A4.23,4.23,0,0,0,59,35.1a2.43,2.43,0,0,0,2.14,2.46c-1.15-.78-1.11-2.38.7-2.86,1.32-.35,3.64.18,5.82-.41a6.56,6.56,0,0,0,4.23-3.52c-1.14,4.84-4.12,6.42-7.18,9.22-3.46,3.22-4.68,6.78-4.53,8.63.18,2.17,1.32,3.39,3.5,2.7a3.86,3.86,0,0,0,3-3.53c0-1.34-.81-1.58-.81-3.18C65.89,39.94,72.41,36.08,72.41,30.44ZM69.78,32l0,0a7.67,7.67,0,0,1-4,1,10.33,10.33,0,0,0-3.9.23h0a.05.05,0,0,1-.06,0,.06.06,0,0,1,0-.08h0a6.87,6.87,0,0,1,4-.6,10,10,0,0,0,4-.69.06.06,0,0,1,.08,0A.06.06,0,0,1,69.78,32Zm-4,9a21.77,21.77,0,0,0-2.28,4.41c-.21.61-.83,2.68,0,3.81h0a.06.06,0,0,1,0,.09h0a.05.05,0,0,1,0,0h0a4.5,4.5,0,0,1-.51-4,12.09,12.09,0,0,1,2.72-4.24l.06-.08s.07,0,.09,0A.05.05,0,0,1,65.78,40.94Z"/></g></g></svg>